<svg xmlns="http://www.w3.org/2000/svg" width="500" height="373" fill="none" xmlns:v="https://vecta.io/nano"><style><![CDATA[.B{fill:#263238}.C{fill:#f5f5f5}.D{fill:#25c5c4}.E{fill:#fff}.F{opacity:.2}.G{fill:#ce7a63}.H{fill:#000}.I{fill:#e6e6e6}.J{fill:#f0f0f0}.K{fill:#ebebeb}.L{fill:#e0e0e0}]]></style><path d="M500 327.4H0v.25h500v-.25zm-111.55 7.51h-33.12v.25h33.12v-.25zM302 343.37h-44.03v.25H302v-.25zm132.24.82h-44.78v.25h44.78v-.25zm-337.36-9.53H53.69v.25h43.19v-.25zm15.24 0h-6.33v.25h6.33v-.25zm114.26 4.22H132.7v.25h93.68v-.25zM237 282.8H43.91a5.71 5.71 0 0 1-5.7-5.71V5.66a5.71 5.71 0 0 1 1.686-4.002A5.71 5.71 0 0 1 43.91 0H237a5.71 5.71 0 0 1 4.038 1.672c1.07 1.071 1.672 2.523 1.672 4.038v271.38c0 1.514-.602 2.967-1.672 4.038A5.71 5.71 0 0 1 237 282.8zM43.91.2a5.46 5.46 0 0 0-5.45 5.46v271.43a5.46 5.46 0 0 0 5.45 5.46H237c1.447-.003 2.834-.579 3.858-1.602a5.47 5.47 0 0 0 1.602-3.858V5.66c-.003-1.447-.579-2.835-1.602-3.858A5.47 5.47 0 0 0 237 .2H43.91zm409.4 282.6h-193.1c-1.514-.003-2.964-.605-4.035-1.675s-1.672-2.521-1.675-4.035V5.66A5.72 5.72 0 0 1 260.21 0h193.1A5.71 5.71 0 0 1 459 5.66v271.43c0 1.511-.599 2.96-1.665 4.031a5.71 5.71 0 0 1-4.025 1.679zM260.21.2a5.47 5.47 0 0 0-3.858 1.602c-1.023 1.023-1.599 2.411-1.602 3.858v271.43c.003 1.447.579 2.834 1.602 3.858a5.47 5.47 0 0 0 3.858 1.602h193.1c1.447-.003 2.835-.579 3.858-1.602s1.599-2.411 1.602-3.858V5.66c-.003-1.447-.579-2.835-1.602-3.858A5.47 5.47 0 0 0 453.31.2h-193.1z" class="K"/><path d="M341.72 195.98h93.46V24.15h-93.46v171.83z" class="I"/><path d="M331.06 195.98H432.63V24.15H331.06V195.98Z" class="J"/><path d="M424.13 187.46V32.65h-84.55v154.81h84.55z" class="E"/><path d="M127.29 31.1h-73.6v85.54h73.6V31.1z" class="L"/><path d="M131.69 31.1H56.18v85.54h75.51V31.1z" class="C"/><path d="M125.36 109.9V37.84H62.5v72.06h62.86z" class="E"/><path d="M230.53 81.03h-73.6v85.54h73.6V81.03z" class="L"/><path d="M234.93 81.03h-75.51v85.54h75.51V81.03z" class="C"/><path d="M228.6 159.84V87.78h-62.86v72.06h62.86z" class="E"/><path d="M188.45 237.81l-1.52.05c-3.191.229-6.291 1.159-9.08 2.726s-5.198 3.73-7.053 6.335-3.112 5.589-3.681 8.737-.434 6.382.394 9.472c2.37 9.223 3.513 18.718 3.4 28.24v27.74a3.63 3.63 0 0 0 .278 1.395 3.62 3.62 0 0 0 .791 1.182c.34.339.742.607 1.185.789a3.65 3.65 0 0 0 1.396.274h88v-86.94h-74.11z" class="J"/><path d="M284.27 259.5c-.126-5.54-2.368-10.822-6.267-14.761s-9.158-6.234-14.696-6.416-10.937 1.765-15.086 5.439-6.733 8.798-7.221 14.318c-.15 2.376.086 4.76.7 7.06 2.365 9.224 3.508 18.718 3.4 28.24v27.74a3.64 3.64 0 0 0 3.64 3.64h27.8a3.64 3.64 0 0 0 2.574-1.066c.682-.683 1.066-1.609 1.066-2.574v-29.36c-.082-8.935 1.048-17.839 3.36-26.47.503-1.888.748-3.836.73-5.79z" class="C"/><path d="M232.71 271.97h-79.02v52.79h79.02v-52.79z" class="J"/><path d="M163.7 197.2H90.76c-9.07 0-15.23 7.35-13.76 16.41l11.38 70.29h105.77l-11.38-70.29c-1.47-9.06-10.01-16.41-19.07-16.41z" class="K"/><path d="M185.15 197.2h-74.52c-8.63 0-14.49 7-13.09 15.62l11.51 71.08h105.76l-11.51-71.08c-1.4-8.62-9.52-15.62-18.15-15.62z" class="C"/><path d="M158.86 267.15h72.84a4.76 4.76 0 0 1 3.366 1.394c.892.893 1.394 2.103 1.394 3.366v12c0 1.262-.502 2.473-1.394 3.366s-2.104 1.394-3.366 1.394h-72.84a1.42 1.42 0 0 1-1.42-1.42v-18.68a1.42 1.42 0 0 1 1.42-1.42z" class="K"/><path d="M80.59 237.81l-1.52.05c-5.218.394-10.118 2.655-13.804 6.369A21.76 21.76 0 0 0 59 258.08c-.15 2.376.086 4.76.7 7.06a108.32 108.32 0 0 1 3.4 28.24v27.74a3.64 3.64 0 0 0 3.64 3.64h88v-86.95H80.59z" class="J"/><path d="M176.41 259.5a21.69 21.69 0 0 0-1.942-8.943 21.68 21.68 0 0 0-5.458-7.345 21.67 21.67 0 0 0-8.003-4.439 21.68 21.68 0 0 0-9.121-.741 21.66 21.66 0 0 0-8.615 3.088c-2.619 1.631-4.86 3.801-6.573 6.368s-2.858 5.468-3.36 8.512a21.69 21.69 0 0 0 .452 9.14 108.74 108.74 0 0 1 3.4 28.24v27.74a3.64 3.64 0 0 0 3.64 3.64h27.8a3.64 3.64 0 0 0 2.574-1.066c.682-.683 1.066-1.608 1.066-2.574v-29.36a99.2 99.2 0 0 1 3.35-26.47 21.3 21.3 0 0 0 .79-5.79z" class="C"/><path d="M261 327.4H82.14a2.64 2.64 0 0 1-2.64-2.64h184.18a2.64 2.64 0 0 1-.205 1.019c-.135.323-.333.616-.582.862a2.65 2.65 0 0 1-.87.569c-.325.131-.673.195-1.023.19z" class="L"/><g class="I"><use href="#B"/><use href="#C"/></g><use href="#D" class="C"/><use href="#B" y="19.33" class="I"/><use href="#D" y="19.32" class="C"/><use href="#B" y="-38.65" class="I"/><use href="#D" y="-38.65" class="C"/><use href="#B" y="-19.32" class="I"/><use href="#D" y="-19.33" class="C"/><use href="#C" x="108.7" class="I"/><g class="C"><use href="#C" x="73.23"/><path d="M302 327.4h7.95v-81.27H302v81.27z"/></g><path d="M380.18 245.18h4.25v-47.39h-4.25v47.39z" class="I"/><g class="J"><path d="M380.73 245.14h1.2v-47.39h-1.2v47.39z"/><path d="M366.56 248.06H398a4 4 0 0 0-1.172-2.828c-.75-.751-1.767-1.172-2.828-1.172h-23.47a4 4 0 0 0-4 4h.03z"/><path d="M375.21 246.89h1.59a.43.43 0 0 0 .43-.43v-3.31a.43.43 0 0 0-.43-.43h-1.59a.43.43 0 0 0-.43.43v3.31a.43.43 0 0 0 .43.43z"/></g><path d="M363.27 209h38.07l-3.64-30.36a7.06 7.06 0 0 0-7-6.23h-16.77a7.08 7.08 0 0 0-7 6.23L363.27 209zM250 372.56c107.082 0 193.89-5.068 193.89-11.32S357.082 349.92 250 349.92s-193.89 5.068-193.89 11.32 86.807 11.32 193.89 11.32z" class="C"/><path d="M295.71 107.37l-.35 1.18-.32 1-.7 1.93-1.57 3.68a66.42 66.42 0 0 1-3.75 7l-2.16 3.31-2.36 3.17a68.71 68.71 0 0 1-5.23 5.95l-.39.4a6.07 6.07 0 0 1-1.88 1.31c-2.083.912-4.348 1.332-6.62 1.23a16.75 16.75 0 0 1-5.74-1.35c-1.524-.644-2.964-1.47-4.29-2.46a30.96 30.96 0 0 1-3.37-2.85c-1.916-1.917-3.643-4.014-5.16-6.26l-2.07-3.31-1.82-3.53c-.398-.84-.49-1.793-.262-2.695s.765-1.695 1.515-2.244a4 4 0 0 1 5.087.299l.26.24 2.44 2.24 2.53 2.19c1.61 1.366 3.314 2.615 5.1 3.74a14.26 14.26 0 0 0 4.58 2 2.34 2.34 0 0 0 1.27 0 .67.67 0 0 0 .32-.3l-2.3 1.74 3.63-5.26 3.22-5.53 2.8-5.73 1.23-2.9 1-2.62.28-.72a8 8 0 0 1 9.915-4.397 8 8 0 0 1 4.454 3.751c.961 1.765 1.222 3.827.731 5.776l-.02.02z" class="B"/><path d="M250.76 117.82l-6.76-2.35-1.42-9.26s11.33 3 11.28 8.46l-3.1 3.15z" class="G"/><g class="B"><path d="M290.58 69.58c-4.41-1.55-10.5-6.83-8.11-13.66 1.82-5.18 8.56-5.64 11.21-4.09s2.76-1.63 6.15-2.85 5.78 1.85 7.5 3.46 3.73.39 6.28.5 4.37 3.45 2.95 5.89c-2.5 4.28 1.63 7-1.5 10.34-4.61 4.85-1 9.61-7.5 14.44-3.95 2.96-15.17-2.47-16.98-14.03z"/><path d="M290.5 74.1c-.164.098-.349.156-.54.17a1.26 1.26 0 0 1-1.36-1.14 12.48 12.48 0 0 1 .756-5.857c.717-1.864 1.871-3.528 3.364-4.853a1.24 1.24 0 0 1 .926-.26 1.25 1.25 0 0 1 .466.156 1.24 1.24 0 0 1 .368.324c.103.129.179.276.225.434s.059.324.041.487-.07.322-.15.466a1.25 1.25 0 0 1-.316.373 9.91 9.91 0 0 0-2.617 3.871c-.552 1.48-.741 3.071-.553 4.639a1.26 1.26 0 0 1-.61 1.19z"/></g><path d="M283.31 97.37s-8.87 22.7-.45 65h40.21c.28-6.17-3.6-36.28 2.35-65.36-4.446-.855-8.942-1.423-13.46-1.7-5.692-.33-11.398-.33-17.09 0a74.78 74.78 0 0 0-11.56 2.06z" class="E"/><path d="M310.27 76c-1.08 5.5-2.15 15.58 1.69 19.25l-13.21 10.5c-1.496-1.268-2.639-2.901-3.319-4.74a11.39 11.39 0 0 1-.561-5.76c6.13-1.46 6-6 4.91-10.29L310.27 76z" class="G"/><path d="M306 79.69l-6.21 5.3c.265.982.442 1.986.53 3 2 1.9 5.56-2.91 5.81-5.36.132-.98.088-1.976-.13-2.94z" class="F H"/><path d="M310.2 66.75c.28 7.46.82 11.81-2.54 16-5.07 6.28-14.55 3.79-17.05-3.44-2.25-6.5-2.33-17.6 4.64-21.26a10.17 10.17 0 0 1 9.899.185c1.497.872 2.747 2.111 3.631 3.602s1.373 3.182 1.42 4.914z" class="G"/><g class="B"><path d="M310 73.65c-2.05 4-4.41-8.65-3.81-10.76-7.25 2-18.37 1.34-17.51-3.72 1-5.71 7.64-5.93 15-5.23 12.15 1.17 8.54 15.37 6.32 19.71z"/><path d="M306.41 74.36a1.19 1.19 0 0 1-.55-.1 1.26 1.26 0 0 1-.404-.281 1.25 1.25 0 0 1-.265-.414c-.061-.154-.09-.319-.087-.484s.039-.329.106-.48a12.48 12.48 0 0 1 8.74-7.43 1.25 1.25 0 0 1 .931.201c.271.187.458.474.519.799.053.324-.022.656-.208.926a1.27 1.27 0 0 1-.792.523 9.94 9.94 0 0 0-4.158 2.167c-1.194 1.044-2.12 2.358-2.702 3.833-.096.22-.254.407-.455.539s-.435.201-.675.201z"/></g><path d="M313.92 72c-.395 1.797-1.434 3.387-2.92 4.47-1.95 1.36-3.49-.31-3.44-2.66.05-2.11 1.13-5.35 3.31-5.77s3.54 1.75 3.05 3.96z" class="G"/><g class="B"><path d="M278.78 351.37c-.93.23-1.86.32-2.26 0-.102-.094-.173-.218-.201-.355s-.015-.277.041-.405c.034-.115.092-.221.169-.313s.173-.165.281-.217c1.13-.63 4 .19 4.13.23.037.009.07.03.093.06s.036.067.036.105-.013.075-.036.105-.056.051-.093.06a13.26 13.26 0 0 1-2.16.73zm-1.48-1.13c-.111.026-.219.066-.32.12-.066.032-.125.076-.173.131s-.084.119-.107.189c-.08.25 0 .34.05.39.45.39 2.29-.05 3.6-.58a7.99 7.99 0 0 0-3.05-.25z"/><path d="M280.93 350.619h-.07c-1-.17-3.08-1.32-3.14-2.18 0-.2.07-.48.53-.64.328-.112.687-.09 1 .06 1.1.53 1.75 2.45 1.78 2.53.017.027.026.059.026.09s-.009.063-.026.09c-.028.027-.063.044-.1.05zm-2.46-2.52h-.1c-.31.1-.3.23-.29.27 0 .52 1.5 1.46 2.52 1.78a4.09 4.09 0 0 0-1.48-2 1.01 1.01 0 0 0-.65-.05z"/></g><path d="M291.86 353l-7.53 1.11.24-17.26 7.53-1.1-.24 17.25z" class="G"/><path d="M283.2 349.65h9.87a.59.59 0 0 1 .398.14c.11.094.182.226.202.37l1 6.65a1.19 1.19 0 0 1-.046.496c-.05.16-.134.308-.245.433s-.249.227-.402.296a1.2 1.2 0 0 1-.487.105l-10.9-.22c-4.33 0-8.22.23-13.3.23-3.07 0-3.64-2.91-2.37-3.38 5.68-2.13 8.72-2.49 14.47-4.54.567-.293 1.179-.489 1.81-.58z" class="B"/><path d="M284.57 336.86l-.13 8.89 7.54-1.11.13-8.89-7.54 1.11z" class="F H"/><path d="M288 350.18c-.05-3.19.95-8.32-7-5.18-4.74 1.86 1.69 7.33 1.69 7.33l5.31-2.15z" class="B"/><use href="#E" class="D"/><use href="#E" class="E F"/><g class="B"><path d="M333.06 350.38c-.87.39-1.77.65-2.23.38a.65.65 0 0 1-.29-.71c.011-.121.048-.238.108-.344s.143-.196.242-.266c1-.82 4-.52 4.1-.51.037.002.072.016.101.04s.049.054.059.09.005.071-.007.105a.19.19 0 0 1-.063.085c-.638.436-1.314.814-2.02 1.13zm-1.66-.85c-.103.049-.2.11-.29.18-.061.042-.113.097-.151.16a.52.52 0 0 0-.069.21c0 .25.06.34.12.37.51.31 2.24-.46 3.44-1.2-1.025-.104-2.061-.009-3.05.28z"/><path d="M335 349.27c-1 0-3.26-.75-3.47-1.59-.05-.19 0-.48.41-.72.15-.088.316-.143.488-.164s.346-.006.512.044c1.18.33 2.17 2.09 2.21 2.17.015.027.023.058.023.09s-.008.062-.023.09c-.018.022-.041.041-.067.055s-.054.022-.083.025zm-2.87-2h-.09c-.28.16-.25.28-.24.32.13.5 1.74 1.17 2.8 1.31-.409-.748-1.042-1.35-1.81-1.72-.206-.055-.425-.038-.62.05l-.04.04z"/></g><path d="M346.66 349.71l-7.1 2.41-4.71-16.69 7.09-2.41 4.72 16.69z" class="G"/><path d="M301.52 184c-2.07 8.29-1.52 42.74.62 62.16.51-11.37 1.95-28.9 3.41-45L301.52 184z" class="F H"/><path d="M336.83 348.07l9.72-1.75a.63.63 0 0 1 .426.065c.13.072.23.187.284.325l2.55 6.3c.062.153.089.318.079.482a1.11 1.11 0 0 1-.466.833 1.1 1.1 0 0 1-.453.185l-10.78 1.72-9.29 1.92c-3 .55-4.29-2.18-3.16-2.87 5.08-3.08 4.25-3.29 9.41-6.31.503-.396 1.071-.701 1.68-.9z" class="B"/><path d="M334.85 335.44l2.43 8.6 7.1-2.41-2.43-8.6-7.1 2.41z" class="F H"/><use href="#F" class="D"/><use href="#F" class="E F"/><path d="M299.17 69.93c.06.61-.21 1.13-.61 1.17s-.76-.42-.82-1 .21-1.12.61-1.16.76.39.82.99zm-6.82.68c.06.6-.21 1.12-.61 1.16s-.76-.42-.82-1 .21-1.13.61-1.17.76.4.82 1.01z" class="B"/><path d="M294.55 70.69a21.66 21.66 0 0 1-2.38 5.45c.442.253.934.407 1.442.45a3.5 3.5 0 0 0 1.498-.2l-.56-5.7z" fill="#ba4d3c"/><g class="B"><path d="M297 77.89a.18.18 0 0 1-.127-.042c-.036-.03-.058-.072-.063-.118a.17.17 0 0 1 .006-.071c.007-.023.017-.044.032-.063a.18.18 0 0 1 .122-.066 4.78 4.78 0 0 0 3.71-2.25c.021-.042.058-.074.103-.089s.094-.012.137.009.071.06.086.105a.19.19 0 0 1-.006.135 5.1 5.1 0 0 1-4 2.45zm4-10.36a.38.38 0 0 1-.3-.11 2.83 2.83 0 0 0-2.39-1 .36.36 0 0 1-.264-.062c-.077-.054-.129-.136-.146-.228-.009-.046-.008-.093.002-.139a.35.35 0 0 1 .056-.127c.027-.038.062-.071.102-.095a.36.36 0 0 1 .13-.048 3.51 3.51 0 0 1 1.642.221c.522.203.988.529 1.358.949a.35.35 0 0 1 .082.116c.018.044.028.091.028.139s-.01.095-.028.139a.35.35 0 0 1-.082.116.4.4 0 0 1-.19.13zm-11.95.96a.41.41 0 0 1-.16 0 .36.36 0 0 1-.186-.198c-.034-.088-.032-.185.006-.272.217-.521.555-.982.986-1.346a3.53 3.53 0 0 1 1.494-.744.36.36 0 0 1 .301.03.35.35 0 0 1 .113.106.36.36 0 0 1 .059.144.37.37 0 0 1-.007.155c-.013.051-.039.097-.072.137a.37.37 0 0 1-.123.095.36.36 0 0 1-.151.034 2.83 2.83 0 0 0-1.95 1.68.36.36 0 0 1-.13.133c-.054.032-.117.048-.18.047zM313 94c3.92 0 13.37.21 14.29 3.71s-.09 9.17-1.34 12.5c1.84 5.08 1.25 12.58-.5 14.92 1.92 5.66.67 9.83-.5 11.83.92 2.25 1.75 8.67.34 11.83 1.16 4.5 2.49 12 .41 13.51-2.83 2-10.36 3-15.68 1.74s-3.23-12-2.82-14.5c-2.33-3.08.17-12.33.17-12.33-1.17-2.58.58-12.25.58-12.25-1.41-2.33.42-15 .42-15C306.85 107.42 306.19 94 313 94zm-28.79 2.33c3.08-1.36 13.4-3.83 11.4-1.11-2.9 3.95-1.12 8.11-2.84 13 1.52 4.67 1 12.3-.41 15a18 18 0 0 1-.36 11.98c.75 2 1.44 8.27.27 11.75 1 4.24 1.76 12.79 0 14.72-1.267 1.395-2.946 2.35-4.793 2.726a8.86 8.86 0 0 1-5.477-.636c-2.45-1-3.54-9.18-2.33-12-2.38-5.19-.44-12.88-.44-12.88-2.3-4-.52-12.39-.52-12.39-2.28-7.44.52-15.67.52-15.67-1.23-2.23.07-12.32 4.98-14.49z"/><path d="M291 97.25a3.3 3.3 0 0 1-.974-1.153c-.23-.455-.352-.957-.356-1.467a2.59 2.59 0 0 1 .723-1.856c.237-.246.521-.443.834-.58s.651-.209.993-.214c1.171.097 2.309.438 3.34 1 1.57.77 2.15 1.48 2.22 2.64s-2.79 5.24-4.36 4.27-1.54-1.64-2.42-2.64z"/></g><path d="M321.34 111.55c.78-3.37 2.76-3.07 4.73-1.69l-.14.39c1.84 5.08 1.25 12.58-.5 14.92.11.32.21.64.3 1-2.45-2.4-5.85-8.26-4.39-14.62z" class="F H"/><use href="#G" class="D"/><use href="#G" opacity=".3" class="H"/><use href="#H" class="D"/><use href="#H" opacity=".3" class="H"/><path d="M321.68 119.78l16.66 13.58 20.63-6.02-7.77 20.04 12.1 17.76-21.46-1.2-13.15 17-5.5-20.78-20.22-7.26 18.06-11.64.65-21.48z" class="D"/><g class="G"><path d="M332.15 162.48l-.15 6.79 8-.45s1.08-4.25-3.52-7.21l-4.33.87z"/><path d="M334.57 176.07l5.54-3.19-.1-4.06-8.01.45 2.57 6.8z"/></g><path d="M327.56 97.51l1.68 1.59 1.56 1.56 3 3.22a86.43 86.43 0 0 1 5.51 7c1.813 2.535 3.421 5.21 4.81 8 1.672 3.23 2.743 6.737 3.16 10.35a13.54 13.54 0 0 1 .09 1.61v.84.58l-.17 2.27c-.18 1.49-.36 3-.61 4.41a85.32 85.32 0 0 1-1.82 8.47c-1.439 5.487-3.345 10.84-5.7 16a4 4 0 0 1-7.64-2v-.16l1.29-15.88c.2-2.62.28-5.21.34-7.74v-3.75l-.08-1.8v-.44-.19a3.34 3.34 0 0 0-.09-.42c-.52-1.759-1.273-3.441-2.24-5a59.01 59.01 0 0 0-4-5.75c-1.51-1.92-3.13-3.83-4.81-5.71-.84-.94-1.71-1.86-2.57-2.79l-1.3-1.37-1.23-1.27-.2-.21a8 8 0 0 1 11.17-11.44l-.15.02zM316 96.37c1-.14 1.26-2.48.46-4-.65-1.25-3-1.08-5.1-.54-1.69.377-3.308 1.025-4.79 1.92-2.12 1.17-1.35 2.58-.86 3.69s1.42 3.66 3.42 2.31 5.47-3.17 6.87-3.38zm25.22 251.26c-.15-3.19.69-8.34-7.16-5-4.69 2 1.9 7.28 1.9 7.28l5.26-2.28z" class="B"/><path d="M242.9 99h10.74a1.47 1.47 0 0 1 1.34 1l5.62 20a.77.77 0 0 1-.119.692c-.073.098-.169.177-.278.23a.77.77 0 0 1-.353.078H249.1a1.49 1.49 0 0 1-1.33-1l-5.62-20c-.039-.117-.049-.241-.029-.362a.75.75 0 0 1 .142-.334.76.76 0 0 1 .637-.303z" class="D"/><path d="M248.75 112.48l-2.25-7.83-3.92 1.56 1.42 9.26 4.75-2.99z" class="G"/><path opacity=".3" d="M254.5 99.72a.51.51 0 0 1 .289.112c.082.066.142.157.171.259l5.63 19.91c.017.041.024.086.019.13s-.022.087-.048.123a.25.25 0 0 1-.102.083.26.26 0 0 1-.129.024.5.5 0 0 1-.46-.36l-5.61-19.94c-.01-.039-.012-.079-.005-.118a.27.27 0 0 1 .045-.109c.023-.032.053-.059.087-.079s.073-.031.113-.034z" class="H"/><path d="M122.57 21.3H115v1h7.57v-1zM87 32.64h-1A11.35 11.35 0 0 1 97.29 21.3h13.6v1h-13.6A10.35 10.35 0 0 0 87 32.64zm128.36-7.84H97.29a7.83 7.83 0 0 0-7.83 7.83v19.44a7.83 7.83 0 0 0 7.83 7.83h118.07a7.83 7.83 0 0 0 7.83-7.83V32.63a7.83 7.83 0 0 0-7.83-7.83z" class="D"/><g class="E"><use href="#I"/><use href="#I" x="15.62"/><use href="#J"/><use href="#J" x="15.62"/><use href="#K" class="F"/><path d="M123.77 42.35c.003 2.207-.731 4.351-2.086 6.093a9.91 9.91 0 0 1-11.809 2.992 9.91 9.91 0 0 1-4.735-4.365c-.792-1.447-1.205-3.07-1.2-4.72a9.92 9.92 0 0 1 9.915-9.605 9.92 9.92 0 0 1 9.915 9.605z"/></g><path d="M122.57 47.07c-.848 1.573-2.105 2.887-3.64 3.803a9.9 9.9 0 0 1-10.15 0c-1.534-.916-2.792-2.23-3.64-3.803a15.7 15.7 0 0 1 17.43 0z" class="B"/><path d="M118.27 39c0 .874-.259 1.729-.745 2.456a4.42 4.42 0 0 1-4.537 1.88 4.42 4.42 0 0 1-2.263-1.21c-.618-.618-1.039-1.406-1.21-2.263a4.42 4.42 0 0 1 .252-2.554c.334-.808.901-1.498 1.628-1.984s1.581-.745 2.455-.745a4.42 4.42 0 0 1 3.126 1.295c.828.829 1.294 1.953 1.294 3.125z" fill="#ffc3bd"/><path d="M207.22 146.78h-20.01v1h20.01v-1zm8.14-37.6H97.29a7.83 7.83 0 0 0-7.83 7.83v19.44a7.83 7.83 0 0 0 7.83 7.83h118.07c4.324 0 7.83-3.506 7.83-7.83v-19.44a7.83 7.83 0 0 0-7.83-7.83z" class="D"/><g class="E"><use href="#L"/><use href="#L" x="15.62"/><use href="#M"/><use href="#M" x="15.62"/><use href="#M" x="31.24"/><path d="M122.349 135.22c4.69-4.69 4.69-12.294 0-16.984a12.01 12.01 0 0 0-16.985 0c-4.69 4.69-4.69 12.294 0 16.984a12.01 12.01 0 0 0 16.985 0z" class="F"/><path d="M123.77 126.72a9.91 9.91 0 0 1-2.081 6.097 9.92 9.92 0 0 1-5.39 3.53 9.91 9.91 0 0 1-11.159-4.897 9.81 9.81 0 0 1-1.2-4.73 9.92 9.92 0 0 1 9.915-9.605 9.92 9.92 0 0 1 9.915 9.605z"/></g><path opacity=".5" d="M122.57 131.45c-.85 1.57-2.109 2.882-3.643 3.796s-3.286 1.396-5.072 1.396-3.538-.482-5.072-1.396-2.793-2.226-3.643-3.796a15.7 15.7 0 0 1 17.43 0z" class="D"/><path d="M118.27 123.33c.002.875-.255 1.73-.74 2.458a4.42 4.42 0 0 1-1.981 1.633c-.808.336-1.697.425-2.555.255s-1.647-.589-2.266-1.207-1.041-1.405-1.212-2.263a4.41 4.41 0 0 1 .25-2.555c.334-.808.9-1.499 1.628-1.985s1.582-.746 2.456-.746a4.42 4.42 0 0 1 3.122 1.291c.829.827 1.296 1.948 1.298 3.119z" fill="#ffb573"/><g class="D"><path d="M215.36 66.99H97.29a7.83 7.83 0 0 0-7.83 7.83v19.44a7.83 7.83 0 0 0 7.83 7.83h118.07c4.324 0 7.83-3.506 7.83-7.83V74.82a7.83 7.83 0 0 0-7.83-7.83z"/><path d="M219.56 87.54l-8.4 14.55h21l-12.6-14.55z"/></g><g class="E"><use href="#N"/><use href="#N" x="15.62"/><use href="#K" y="42.19" class="F"/><path d="M123.77 84.54c.003 2.207-.731 4.351-2.086 6.093a9.91 9.91 0 0 1-11.808 2.992 9.91 9.91 0 0 1-4.736-4.365 9.77 9.77 0 0 1-1.2-4.72 9.93 9.93 0 0 1 2.79-7.217 9.92 9.92 0 0 1 7.125-3.018 9.92 9.92 0 0 1 7.125 3.018 9.93 9.93 0 0 1 2.79 7.217z"/></g><path d="M122.57 89.26a9.91 9.91 0 0 1-8.715 5.192 9.91 9.91 0 0 1-8.715-5.192 15.7 15.7 0 0 1 17.43 0z" class="D"/><path d="M118.27 81.15c0 .874-.259 1.729-.745 2.456a4.42 4.42 0 0 1-4.537 1.88 4.42 4.42 0 0 1-2.263-1.21c-.618-.618-1.039-1.406-1.21-2.263a4.42 4.42 0 0 1 .252-2.554c.334-.808.901-1.498 1.628-1.984s1.581-.745 2.455-.745a4.41 4.41 0 0 1 1.693.334c.537.222 1.025.547 1.436.958a4.41 4.41 0 0 1 1.291 3.128z" fill="#b55b52"/><g class="E"><use href="#J" x="30.98" y="-0.06"/><use href="#I" x="31.22" y="41.94"/><use href="#J" x="15.6" y="41.94"/><use href="#J" x="31.22" y="41.94"/></g><defs ><path id="B" d="M453.74 286.71H410.7v3.53h43.04v-3.53z"/><path id="C" d="M329.52 327.4h7.95v-81.27h-7.95v81.27z"/><path id="D" d="M302 290.25h108.7v-3.53H302v3.53z"/><path id="E" d="M282.86 162.34s-4 60.57-2.87 82.11c1.1 20.41 1.72 78.31 1.86 93.5a3.25 3.25 0 0 0 .304 1.336 3.26 3.26 0 0 0 .827 1.093 3.27 3.27 0 0 0 1.202.656c.443.132.909.167 1.367.105l5.32-.72c.71-.097 1.369-.424 1.874-.932s.831-1.168.926-1.878c3.44-26.81 7.53-68.17 8.42-90.31 1-25.27 7.22-85 7.22-85l-26.45.04z"/><path id="F" d="M297.13 162.34s5.18 60.58 9.17 82.11c3.84 20.72 21.21 79.74 26.33 93.15a3.25 3.25 0 0 0 4.06 1.93l5.13-1.67a3.26 3.26 0 0 0 2.19-3.71c-5.1-26.33-13.22-64.81-15.24-86.85-2.31-25.27-5.7-85-5.7-85l-25.94.04z"/><path id="G" d="M321.68 119.78l-6.65 3.04-.65 21.48-18.07 11.64 20.23 7.26 5.49 20.77 6.66-3.03 3.72-33.88-10.73-27.28z"/><path id="H" d="M363.3 165.14l-6.66 3.04-21.46-1.2 8.98-6.06 19.14 4.22z"/><path id="I" d="M140.35 37.06l1.72 3.48 3.85.56-2.79 2.71.66 3.84-3.44-1.81-3.44 1.81.66-3.84-2.79-2.71 3.85-.56 1.72-3.48z"/><path id="J" d="M171.59 37.06l1.72 3.48 3.85.56-2.78 2.71.65 3.84-3.44-1.81-3.44 1.81.66-3.84-2.79-2.71 3.85-.56 1.72-3.48z"/><path id="K" d="M113.85 54.36c6.633 0 12.01-5.377 12.01-12.01s-5.377-12.01-12.01-12.01-12.01 5.377-12.01 12.01 5.377 12.01 12.01 12.01z"/><path id="L" d="M140.35 121.43l1.72 3.49 3.85.55-2.79 2.72.66 3.83-3.44-1.81-3.44 1.81.66-3.83-2.79-2.72 3.85-.55 1.72-3.49z"/><path id="M" d="M171.59 121.43l1.72 3.49 3.85.55-2.78 2.72.65 3.83-3.44-1.81-3.44 1.81.66-3.83-2.79-2.72 3.85-.55 1.72-3.49z"/><path id="N" d="M140.35 79.24l1.72 3.49 3.85.56-2.79 2.71.66 3.83-3.44-1.81-3.44 1.81.66-3.83-2.79-2.71 3.85-.56 1.72-3.49z"/></defs></svg>